<mxfile host="app.diagrams.net" modified="2022-10-31T03:55:44.590Z" agent="5.0 (Windows NT 10.0; Win64; x64) AppleWebKit/537.36 (KHTML, like Gecko) Chrome/106.0.0.0 Safari/537.36" etag="chv-zdsbSra80Q3fh_nD" version="20.5.1" type="github">
  <diagram id="5dv7jGUsbXVJuUE-bfcc" name="第 1 页">
    <mxGraphModel dx="2605" dy="993" grid="1" gridSize="10" guides="1" tooltips="1" connect="1" arrows="1" fold="1" page="1" pageScale="1" pageWidth="827" pageHeight="1169" math="0" shadow="0">
      <root>
        <mxCell id="0" />
        <mxCell id="1" parent="0" />
        <mxCell id="HM9nNzepG861scAWB7ji-1" value="WEB" style="rounded=0;whiteSpace=wrap;html=1;fontSize=14;" vertex="1" parent="1">
          <mxGeometry x="-477.5" y="240" width="747.5" height="440" as="geometry" />
        </mxCell>
        <mxCell id="HM9nNzepG861scAWB7ji-36" style="edgeStyle=orthogonalEdgeStyle;rounded=0;orthogonalLoop=1;jettySize=auto;html=1;exitX=1;exitY=0.25;exitDx=0;exitDy=0;entryX=0;entryY=0.25;entryDx=0;entryDy=0;startArrow=none;" edge="1" parent="1" source="HM9nNzepG861scAWB7ji-54" target="HM9nNzepG861scAWB7ji-1">
          <mxGeometry relative="1" as="geometry" />
        </mxCell>
        <mxCell id="HM9nNzepG861scAWB7ji-3" value="前端" style="rounded=0;whiteSpace=wrap;html=1;" vertex="1" parent="1">
          <mxGeometry x="-660" y="240" width="20" height="441" as="geometry" />
        </mxCell>
        <mxCell id="HM9nNzepG861scAWB7ji-4" value="MQ" style="rounded=0;whiteSpace=wrap;html=1;" vertex="1" parent="1">
          <mxGeometry x="482.5" y="240" width="57.5" height="410" as="geometry" />
        </mxCell>
        <mxCell id="HM9nNzepG861scAWB7ji-6" value="杨晨" style="rounded=0;whiteSpace=wrap;html=1;" vertex="1" parent="1">
          <mxGeometry x="687.5" y="240" width="57.5" height="410" as="geometry" />
        </mxCell>
        <mxCell id="HM9nNzepG861scAWB7ji-8" value="设备" style="rounded=0;whiteSpace=wrap;html=1;" vertex="1" parent="1">
          <mxGeometry x="905" y="240" width="55" height="410" as="geometry" />
        </mxCell>
        <mxCell id="HM9nNzepG861scAWB7ji-17" value="生产者" style="rounded=0;whiteSpace=wrap;html=1;fontSize=14;" vertex="1" parent="1">
          <mxGeometry x="130" y="250" width="120" height="130" as="geometry" />
        </mxCell>
        <mxCell id="HM9nNzepG861scAWB7ji-27" value="是否是删除缓存？" style="rhombus;whiteSpace=wrap;html=1;fontSize=14;" vertex="1" parent="1">
          <mxGeometry x="-300" y="560" width="101" height="80" as="geometry" />
        </mxCell>
        <mxCell id="HM9nNzepG861scAWB7ji-29" value="CQ查询" style="whiteSpace=wrap;html=1;aspect=fixed;fontSize=14;" vertex="1" parent="1">
          <mxGeometry x="-163.75" y="540" width="120" height="120" as="geometry" />
        </mxCell>
        <mxCell id="HM9nNzepG861scAWB7ji-30" value="T1" style="text;html=1;strokeColor=none;fillColor=none;align=center;verticalAlign=middle;whiteSpace=wrap;rounded=0;fontSize=14;" vertex="1" parent="1">
          <mxGeometry x="289" y="427.5" width="30" height="25" as="geometry" />
        </mxCell>
        <mxCell id="HM9nNzepG861scAWB7ji-37" style="edgeStyle=orthogonalEdgeStyle;rounded=0;orthogonalLoop=1;jettySize=auto;html=1;entryX=1;entryY=0.75;entryDx=0;entryDy=0;" edge="1" parent="1" source="HM9nNzepG861scAWB7ji-31" target="HM9nNzepG861scAWB7ji-3">
          <mxGeometry relative="1" as="geometry" />
        </mxCell>
        <mxCell id="HM9nNzepG861scAWB7ji-38" style="edgeStyle=orthogonalEdgeStyle;rounded=0;orthogonalLoop=1;jettySize=auto;html=1;exitX=0;exitY=0.75;exitDx=0;exitDy=0;entryX=1.1;entryY=0.861;entryDx=0;entryDy=0;entryPerimeter=0;" edge="1" parent="1" source="HM9nNzepG861scAWB7ji-31" target="HM9nNzepG861scAWB7ji-3">
          <mxGeometry relative="1" as="geometry" />
        </mxCell>
        <mxCell id="HM9nNzepG861scAWB7ji-31" value="WebSockect服务" style="whiteSpace=wrap;html=1;aspect=fixed;fontSize=14;" vertex="1" parent="1">
          <mxGeometry x="-440" y="560" width="80" height="80" as="geometry" />
        </mxCell>
        <mxCell id="HM9nNzepG861scAWB7ji-39" value="GEODE（REGION 设置一个超时时间 timeout = 10s）" style="rounded=1;whiteSpace=wrap;html=1;" vertex="1" parent="1">
          <mxGeometry x="-477.5" y="750" width="747.5" height="160" as="geometry" />
        </mxCell>
        <mxCell id="HM9nNzepG861scAWB7ji-42" value="消费者" style="rounded=0;whiteSpace=wrap;html=1;fontSize=14;" vertex="1" parent="1">
          <mxGeometry x="130" y="510" width="120" height="150" as="geometry" />
        </mxCell>
        <mxCell id="HM9nNzepG861scAWB7ji-47" value="生产指令" style="endArrow=classic;html=1;rounded=0;exitX=1.002;exitY=0.072;exitDx=0;exitDy=0;exitPerimeter=0;" edge="1" parent="1" source="HM9nNzepG861scAWB7ji-1">
          <mxGeometry width="50" height="50" relative="1" as="geometry">
            <mxPoint x="380" y="200" as="sourcePoint" />
            <mxPoint x="480" y="290" as="targetPoint" />
          </mxGeometry>
        </mxCell>
        <mxCell id="HM9nNzepG861scAWB7ji-48" value="消费指令" style="endArrow=classic;html=1;rounded=0;exitX=1.049;exitY=0.131;exitDx=0;exitDy=0;exitPerimeter=0;entryX=0.013;entryY=0.185;entryDx=0;entryDy=0;entryPerimeter=0;" edge="1" parent="1" source="HM9nNzepG861scAWB7ji-4" target="HM9nNzepG861scAWB7ji-6">
          <mxGeometry width="50" height="50" relative="1" as="geometry">
            <mxPoint x="580" y="270" as="sourcePoint" />
            <mxPoint x="630" y="220" as="targetPoint" />
          </mxGeometry>
        </mxCell>
        <mxCell id="HM9nNzepG861scAWB7ji-49" value="程序返回" style="endArrow=classic;html=1;rounded=0;exitX=-0.001;exitY=0.2;exitDx=0;exitDy=0;exitPerimeter=0;entryX=1.036;entryY=0.322;entryDx=0;entryDy=0;entryPerimeter=0;" edge="1" parent="1" source="HM9nNzepG861scAWB7ji-6" target="HM9nNzepG861scAWB7ji-4">
          <mxGeometry width="50" height="50" relative="1" as="geometry">
            <mxPoint x="542.0675000000001" y="405.36" as="sourcePoint" />
            <mxPoint x="687.4975" y="427.4999999999999" as="targetPoint" />
          </mxGeometry>
        </mxCell>
        <mxCell id="HM9nNzepG861scAWB7ji-51" value="给设备下发指令" style="endArrow=classic;html=1;rounded=0;entryX=-0.025;entryY=0.279;entryDx=0;entryDy=0;entryPerimeter=0;" edge="1" parent="1" target="HM9nNzepG861scAWB7ji-8">
          <mxGeometry width="50" height="50" relative="1" as="geometry">
            <mxPoint x="750" y="320" as="sourcePoint" />
            <mxPoint x="860" y="320" as="targetPoint" />
          </mxGeometry>
        </mxCell>
        <mxCell id="HM9nNzepG861scAWB7ji-52" value="设备返回" style="endArrow=classic;html=1;rounded=0;exitX=-0.039;exitY=0.371;exitDx=0;exitDy=0;exitPerimeter=0;strokeColor=#CC0000;" edge="1" parent="1" source="HM9nNzepG861scAWB7ji-8">
          <mxGeometry width="50" height="50" relative="1" as="geometry">
            <mxPoint x="830" y="460" as="sourcePoint" />
            <mxPoint x="740" y="450" as="targetPoint" />
          </mxGeometry>
        </mxCell>
        <mxCell id="HM9nNzepG861scAWB7ji-53" value="设备返回" style="endArrow=classic;html=1;rounded=0;exitX=0;exitY=0.5;exitDx=0;exitDy=0;entryX=1.063;entryY=0.6;entryDx=0;entryDy=0;entryPerimeter=0;strokeColor=#CC0000;" edge="1" parent="1" source="HM9nNzepG861scAWB7ji-6" target="HM9nNzepG861scAWB7ji-4">
          <mxGeometry width="50" height="50" relative="1" as="geometry">
            <mxPoint x="630" y="550" as="sourcePoint" />
            <mxPoint x="680" y="500" as="targetPoint" />
          </mxGeometry>
        </mxCell>
        <mxCell id="HM9nNzepG861scAWB7ji-55" value="杨晨设备返回消费" style="endArrow=classic;html=1;rounded=0;exitX=0.019;exitY=0.634;exitDx=0;exitDy=0;exitPerimeter=0;entryX=1.011;entryY=0.932;entryDx=0;entryDy=0;entryPerimeter=0;strokeColor=#CC0000;" edge="1" parent="1" source="HM9nNzepG861scAWB7ji-4" target="HM9nNzepG861scAWB7ji-42">
          <mxGeometry width="50" height="50" relative="1" as="geometry">
            <mxPoint x="380" y="610" as="sourcePoint" />
            <mxPoint x="430" y="560" as="targetPoint" />
          </mxGeometry>
        </mxCell>
        <mxCell id="HM9nNzepG861scAWB7ji-56" value="杨晨程序返回消费" style="endArrow=classic;html=1;rounded=0;entryX=1.011;entryY=0.101;entryDx=0;entryDy=0;entryPerimeter=0;" edge="1" parent="1" target="HM9nNzepG861scAWB7ji-42">
          <mxGeometry width="50" height="50" relative="1" as="geometry">
            <mxPoint x="480" y="380" as="sourcePoint" />
            <mxPoint x="420" y="620" as="targetPoint" />
          </mxGeometry>
        </mxCell>
        <mxCell id="HM9nNzepG861scAWB7ji-57" value="杨晨程序返回消费入缓存" style="endArrow=classic;html=1;rounded=0;entryX=0.475;entryY=-0.007;entryDx=0;entryDy=0;entryPerimeter=0;exitX=-0.038;exitY=0.304;exitDx=0;exitDy=0;exitPerimeter=0;" edge="1" parent="1" source="HM9nNzepG861scAWB7ji-42" target="HM9nNzepG861scAWB7ji-39">
          <mxGeometry width="50" height="50" relative="1" as="geometry">
            <mxPoint x="350" y="800" as="sourcePoint" />
            <mxPoint x="400" y="750" as="targetPoint" />
          </mxGeometry>
        </mxCell>
        <mxCell id="HM9nNzepG861scAWB7ji-58" value="杨晨程序返回消费更新缓存" style="endArrow=classic;html=1;rounded=0;exitX=0;exitY=0.75;exitDx=0;exitDy=0;startArrow=none;strokeColor=#CC0000;" edge="1" parent="1" source="HM9nNzepG861scAWB7ji-42" target="HM9nNzepG861scAWB7ji-39">
          <mxGeometry x="0.5328" width="50" height="50" relative="1" as="geometry">
            <mxPoint x="390" y="840" as="sourcePoint" />
            <mxPoint x="440" y="790" as="targetPoint" />
            <mxPoint as="offset" />
          </mxGeometry>
        </mxCell>
        <mxCell id="HM9nNzepG861scAWB7ji-62" value="&lt;font style=&quot;font-size: 30px;&quot;&gt;消息ID：meid + funcode + sessionId&amp;nbsp;&lt;/font&gt;" style="text;html=1;strokeColor=none;fillColor=none;align=center;verticalAlign=middle;whiteSpace=wrap;rounded=0;" vertex="1" parent="1">
          <mxGeometry x="287" y="840" width="540" height="70" as="geometry" />
        </mxCell>
        <mxCell id="HM9nNzepG861scAWB7ji-63" value="" style="ellipse;whiteSpace=wrap;html=1;strokeWidth=2;fillWeight=2;hachureGap=8;fillColor=#990000;fillStyle=dots;sketch=1;fontSize=30;" vertex="1" parent="1">
          <mxGeometry x="110" y="600" width="40" height="50" as="geometry" />
        </mxCell>
        <mxCell id="HM9nNzepG861scAWB7ji-65" value="" style="rhombus;whiteSpace=wrap;html=1;strokeWidth=2;fillWeight=-1;hachureGap=8;fillStyle=cross-hatch;fillColor=#006600;sketch=1;fontSize=30;" vertex="1" parent="1">
          <mxGeometry x="660" y="295" width="47" height="40" as="geometry" />
        </mxCell>
        <mxCell id="HM9nNzepG861scAWB7ji-54" value="" style="rounded=1;whiteSpace=wrap;html=1;strokeWidth=2;fillWeight=4;hachureGap=8;hachureAngle=45;fillColor=#1ba1e2;sketch=1;arcSize=20;" vertex="1" parent="1">
          <mxGeometry x="-490" y="335" width="40" height="35" as="geometry" />
        </mxCell>
        <mxCell id="HM9nNzepG861scAWB7ji-66" value="" style="edgeStyle=orthogonalEdgeStyle;rounded=0;orthogonalLoop=1;jettySize=auto;html=1;exitX=1;exitY=0.25;exitDx=0;exitDy=0;entryX=0;entryY=0.25;entryDx=0;entryDy=0;endArrow=none;" edge="1" parent="1" source="HM9nNzepG861scAWB7ji-3" target="HM9nNzepG861scAWB7ji-54">
          <mxGeometry relative="1" as="geometry">
            <mxPoint x="-640" y="350.25" as="sourcePoint" />
            <mxPoint x="-477.5" y="349.9999999999998" as="targetPoint" />
          </mxGeometry>
        </mxCell>
        <mxCell id="HM9nNzepG861scAWB7ji-68" value="一、超时逻辑有问题" style="rounded=0;whiteSpace=wrap;html=1;fontSize=30;align=left;" vertex="1" parent="1">
          <mxGeometry x="250" y="930" width="500" height="60" as="geometry" />
        </mxCell>
      </root>
    </mxGraphModel>
  </diagram>
</mxfile>
